G75*
%MOIN*%
%OFA0B0*%
%FSLAX25Y25*%
%IPPOS*%
%LPD*%
%AMOC8*
5,1,8,0,0,1.08239X$1,22.5*
%
%ADD10C,0.10800*%
%ADD11OC8,0.10800*%
%ADD12OC8,0.06400*%
%ADD13C,0.06400*%
%ADD14C,0.07600*%
%ADD15C,0.06400*%
%ADD16C,0.07200*%
%ADD17R,0.07137X0.07137*%
%ADD18C,0.07137*%
%ADD19C,0.07924*%
D10*
X0038342Y0196256D03*
X0078342Y0196256D03*
D11*
X0098342Y0196256D03*
X0058342Y0196256D03*
D12*
X0033342Y0026256D03*
X0033342Y0036256D03*
X0053342Y0036256D03*
X0063342Y0036256D03*
X0063342Y0026256D03*
X0053342Y0026256D03*
X0042342Y0056256D03*
X0067342Y0056256D03*
X0083342Y0036256D03*
X0093342Y0036256D03*
X0083342Y0026256D03*
X0103342Y0021256D03*
X0103342Y0011256D03*
X0113342Y0036256D03*
X0092342Y0056256D03*
X0092342Y0081256D03*
X0067342Y0081256D03*
X0042342Y0081256D03*
X0118342Y0091256D03*
X0118342Y0106256D03*
X0118342Y0121256D03*
X0118342Y0136256D03*
X0118342Y0156256D03*
X0128342Y0156256D03*
X0143342Y0156256D03*
X0153342Y0156256D03*
X0168342Y0156256D03*
X0178342Y0156256D03*
X0188342Y0136256D03*
X0188342Y0121256D03*
X0188342Y0106256D03*
X0188342Y0091256D03*
X0158342Y0091256D03*
X0148342Y0091256D03*
X0148342Y0106256D03*
X0158342Y0106256D03*
X0158342Y0121256D03*
X0148342Y0121256D03*
X0148342Y0136256D03*
X0158342Y0136256D03*
X0192342Y0181256D03*
X0192342Y0206256D03*
X0237342Y0206256D03*
X0237342Y0181256D03*
X0243342Y0156256D03*
X0253342Y0156256D03*
X0268342Y0156256D03*
X0278342Y0156256D03*
X0293342Y0156256D03*
X0303342Y0156256D03*
X0308342Y0136256D03*
X0308342Y0121256D03*
X0308342Y0106256D03*
X0308342Y0091256D03*
X0278342Y0091256D03*
X0268342Y0091256D03*
X0268342Y0106256D03*
X0278342Y0106256D03*
X0278342Y0121256D03*
X0268342Y0121256D03*
X0268342Y0136256D03*
X0278342Y0136256D03*
X0238342Y0136256D03*
X0238342Y0121256D03*
X0238342Y0106256D03*
X0238342Y0091256D03*
D13*
X0229342Y0181256D03*
X0229342Y0206256D03*
X0184342Y0206256D03*
X0184342Y0181256D03*
X0084342Y0081256D03*
X0084342Y0056256D03*
X0059342Y0056256D03*
X0059342Y0081256D03*
X0034342Y0081256D03*
X0034342Y0056256D03*
D14*
X0038342Y0226256D03*
X0053342Y0226256D03*
X0078342Y0226256D03*
X0093342Y0226256D03*
X0093342Y0266256D03*
X0078342Y0266256D03*
X0053342Y0266256D03*
X0038342Y0266256D03*
D15*
X0123342Y0269056D02*
X0123342Y0263456D01*
X0138342Y0263456D02*
X0138342Y0269056D01*
X0153342Y0269056D02*
X0153342Y0263456D01*
X0168342Y0263456D02*
X0168342Y0269056D01*
X0183342Y0269056D02*
X0183342Y0263456D01*
X0183342Y0229056D02*
X0183342Y0223456D01*
X0168342Y0223456D02*
X0168342Y0229056D01*
X0168342Y0214056D02*
X0168342Y0208456D01*
X0153342Y0208456D02*
X0153342Y0214056D01*
X0153342Y0223456D02*
X0153342Y0229056D01*
X0138342Y0229056D02*
X0138342Y0223456D01*
X0138342Y0214056D02*
X0138342Y0208456D01*
X0123342Y0208456D02*
X0123342Y0214056D01*
X0123342Y0223456D02*
X0123342Y0229056D01*
X0123342Y0174056D02*
X0123342Y0168456D01*
X0138342Y0168456D02*
X0138342Y0174056D01*
X0153342Y0174056D02*
X0153342Y0168456D01*
X0168342Y0168456D02*
X0168342Y0174056D01*
X0195542Y0161256D02*
X0201142Y0161256D01*
X0201142Y0151256D02*
X0195542Y0151256D01*
X0195542Y0141256D02*
X0201142Y0141256D01*
X0201142Y0131256D02*
X0195542Y0131256D01*
X0225542Y0131256D02*
X0231142Y0131256D01*
X0231142Y0141256D02*
X0225542Y0141256D01*
X0225542Y0151256D02*
X0231142Y0151256D01*
X0231142Y0161256D02*
X0225542Y0161256D01*
X0253342Y0168456D02*
X0253342Y0174056D01*
X0268342Y0174056D02*
X0268342Y0168456D01*
X0283342Y0168456D02*
X0283342Y0174056D01*
X0298342Y0174056D02*
X0298342Y0168456D01*
X0298342Y0208456D02*
X0298342Y0214056D01*
X0298342Y0223456D02*
X0298342Y0229056D01*
X0283342Y0229056D02*
X0283342Y0223456D01*
X0283342Y0214056D02*
X0283342Y0208456D01*
X0268342Y0208456D02*
X0268342Y0214056D01*
X0268342Y0223456D02*
X0268342Y0229056D01*
X0253342Y0229056D02*
X0253342Y0223456D01*
X0253342Y0214056D02*
X0253342Y0208456D01*
X0238342Y0223456D02*
X0238342Y0229056D01*
X0238342Y0263456D02*
X0238342Y0269056D01*
X0253342Y0269056D02*
X0253342Y0263456D01*
X0268342Y0263456D02*
X0268342Y0269056D01*
X0283342Y0269056D02*
X0283342Y0263456D01*
X0298342Y0263456D02*
X0298342Y0269056D01*
X0303342Y0039056D02*
X0303342Y0033456D01*
X0293342Y0033456D02*
X0293342Y0039056D01*
X0283342Y0039056D02*
X0283342Y0033456D01*
X0258342Y0033456D02*
X0258342Y0039056D01*
X0248342Y0039056D02*
X0248342Y0033456D01*
X0238342Y0033456D02*
X0238342Y0039056D01*
X0188342Y0039056D02*
X0188342Y0033456D01*
X0178342Y0033456D02*
X0178342Y0039056D01*
X0168342Y0039056D02*
X0168342Y0033456D01*
X0143342Y0033456D02*
X0143342Y0039056D01*
X0133342Y0039056D02*
X0133342Y0033456D01*
X0123342Y0033456D02*
X0123342Y0039056D01*
D16*
X0128342Y0063056D02*
X0128342Y0069456D01*
X0138342Y0069456D02*
X0138342Y0063056D01*
X0118342Y0063056D02*
X0118342Y0069456D01*
X0168342Y0069456D02*
X0168342Y0063056D01*
X0178342Y0063056D02*
X0178342Y0069456D01*
X0188342Y0069456D02*
X0188342Y0063056D01*
X0238342Y0063056D02*
X0238342Y0069456D01*
X0248342Y0069456D02*
X0248342Y0063056D01*
X0258342Y0063056D02*
X0258342Y0069456D01*
X0283342Y0069456D02*
X0283342Y0063056D01*
X0293342Y0063056D02*
X0293342Y0069456D01*
X0303342Y0069456D02*
X0303342Y0063056D01*
D17*
X0078342Y0151256D03*
X0058342Y0116256D03*
D18*
X0068342Y0116256D03*
X0078342Y0116256D03*
X0068342Y0151256D03*
X0058342Y0151256D03*
D19*
X0048342Y0277694D02*
X0048342Y0284818D01*
X0038342Y0284818D02*
X0038342Y0277694D01*
X0138342Y0277694D02*
X0138342Y0284818D01*
X0148342Y0284818D02*
X0148342Y0277694D01*
X0253342Y0277694D02*
X0253342Y0284818D01*
X0263342Y0284818D02*
X0263342Y0277694D01*
X0258342Y0019818D02*
X0258342Y0012694D01*
X0268342Y0012694D02*
X0268342Y0019818D01*
X0168342Y0019818D02*
X0168342Y0012694D01*
X0158342Y0012694D02*
X0158342Y0019818D01*
M02*
