%
M48
M72
T01C0.03200
T02C0.03937
T03C0.04000
T04C0.04400
T05C0.04724
%
T01
X33342Y26256
X33342Y36256
X53342Y36256
X63342Y36256
X63342Y26256
X53342Y26256
X59342Y56256
X67342Y56256
X84342Y56256
X92342Y56256
X93342Y36256
X83342Y36256
X83342Y26256
X103342Y21256
X103342Y11256
X113342Y36256
X123342Y36256
X133342Y36256
X143342Y36256
X168342Y36256
X178342Y36256
X188342Y36256
X238342Y36256
X248342Y36256
X258342Y36256
X283342Y36256
X293342Y36256
X303342Y36256
X308342Y91256
X308342Y106256
X308342Y121256
X308342Y136256
X303342Y156256
X293342Y156256
X278342Y156256
X268342Y156256
X253342Y156256
X243342Y156256
X228342Y161256
X228342Y151256
X228342Y141256
X228342Y131256
X238342Y136256
X238342Y121256
X238342Y106256
X238342Y91256
X268342Y91256
X278342Y91256
X278342Y106256
X268342Y106256
X268342Y121256
X278342Y121256
X278342Y136256
X268342Y136256
X268342Y171256
X253342Y171256
X237342Y181256
X229342Y181256
X229342Y206256
X237342Y206256
X253342Y211256
X268342Y211256
X268342Y226256
X253342Y226256
X238342Y226256
X238342Y266256
X253342Y266256
X268342Y266256
X283342Y266256
X298342Y266256
X298342Y226256
X298342Y211256
X283342Y211256
X283342Y226256
X283342Y171256
X298342Y171256
X198342Y161256
X198342Y151256
X198342Y141256
X198342Y131256
X188342Y136256
X188342Y121256
X188342Y106256
X188342Y91256
X158342Y91256
X148342Y91256
X148342Y106256
X158342Y106256
X158342Y121256
X148342Y121256
X148342Y136256
X158342Y136256
X153342Y156256
X143342Y156256
X128342Y156256
X118342Y156256
X123342Y171256
X138342Y171256
X153342Y171256
X168342Y171256
X168342Y156256
X178342Y156256
X184342Y181256
X192342Y181256
X192342Y206256
X184342Y206256
X168342Y211256
X168342Y226256
X183342Y226256
X153342Y226256
X153342Y211256
X138342Y211256
X138342Y226256
X123342Y226256
X123342Y211256
X123342Y266256
X138342Y266256
X153342Y266256
X168342Y266256
X183342Y266256
X118342Y136256
X118342Y121256
X118342Y106256
X118342Y91256
X92342Y81256
X84342Y81256
X67342Y81256
X59342Y81256
X42342Y81256
X34342Y81256
X34342Y56256
X42342Y56256
T02
X58342Y116256
X68342Y116256
X78342Y116256
X78342Y151256
X68342Y151256
X58342Y151256
T03
X58342Y196256
X78342Y196256
X98342Y196256
X38342Y196256
X118342Y66256
X128342Y66256
X138342Y66256
X168342Y66256
X178342Y66256
X188342Y66256
X238342Y66256
X248342Y66256
X258342Y66256
X283342Y66256
X293342Y66256
X303342Y66256
T04
X93342Y226256
X78342Y226256
X53342Y226256
X38342Y226256
X38342Y266256
X53342Y266256
X78342Y266256
X93342Y266256
T05
X138342Y281256
X148342Y281256
X48342Y281256
X38342Y281256
X253342Y281256
X263342Y281256
X258342Y16256
X268342Y16256
X168342Y16256
X158342Y16256
M30
