G75*
%MOIN*%
%OFA0B0*%
%FSLAX25Y25*%
%IPPOS*%
%LPD*%
%AMOC8*
5,1,8,0,0,1.08239X$1,22.5*
%
%ADD10C,0.00512*%
%ADD11C,0.00600*%
%ADD12C,0.10000*%
%ADD13OC8,0.10000*%
%ADD14OC8,0.05600*%
%ADD15C,0.05600*%
%ADD16C,0.06800*%
%ADD17C,0.05600*%
%ADD18C,0.06400*%
%ADD19R,0.06337X0.06337*%
%ADD20C,0.06337*%
%ADD21C,0.07124*%
%ADD22C,0.00800*%
D10*
X0003342Y0001256D02*
X0021019Y0001256D01*
X0013342Y0001512D02*
X0014365Y0011492D01*
X0014599Y0011492D02*
X0013342Y0001512D01*
X0012318Y0011492D01*
X0012085Y0011492D02*
X0014599Y0011492D01*
X0013854Y0011492D02*
X0013342Y0001512D01*
X0012830Y0011492D01*
X0012085Y0011492D02*
X0013342Y0001512D01*
X0013342Y0301000D01*
X0014365Y0291020D01*
X0014599Y0291020D02*
X0013342Y0301000D01*
X0012318Y0291020D01*
X0012085Y0291020D02*
X0014599Y0291020D01*
X0013854Y0291020D02*
X0013342Y0301000D01*
X0012830Y0291020D01*
X0012085Y0291020D02*
X0013342Y0301000D01*
X0018598Y0301256D02*
X0028578Y0300232D01*
X0028578Y0299999D02*
X0018598Y0301256D01*
X0028578Y0302280D01*
X0028578Y0302513D02*
X0028578Y0299999D01*
X0028578Y0300744D02*
X0018598Y0301256D01*
X0028578Y0301768D01*
X0028578Y0302513D02*
X0018598Y0301256D01*
X0318086Y0301256D01*
X0308106Y0300232D01*
X0308106Y0299999D02*
X0318086Y0301256D01*
X0308106Y0302280D01*
X0308106Y0302513D02*
X0308106Y0299999D01*
X0308106Y0300744D02*
X0318086Y0301256D01*
X0308106Y0301768D01*
X0308106Y0302513D02*
X0318086Y0301256D01*
X0318342Y0293579D02*
X0318342Y0311256D01*
X0021019Y0301256D02*
X0003342Y0301256D01*
X0018342Y0293579D02*
X0018342Y0311256D01*
D11*
X0158873Y0310218D02*
X0161006Y0310218D01*
X0161006Y0310217D02*
X0161080Y0310215D01*
X0161155Y0310209D01*
X0161228Y0310199D01*
X0161302Y0310186D01*
X0161374Y0310169D01*
X0161445Y0310147D01*
X0161516Y0310123D01*
X0161584Y0310094D01*
X0161652Y0310062D01*
X0161717Y0310026D01*
X0161780Y0309988D01*
X0161842Y0309945D01*
X0161901Y0309900D01*
X0161958Y0309852D01*
X0162012Y0309801D01*
X0162063Y0309747D01*
X0162111Y0309690D01*
X0162156Y0309631D01*
X0162199Y0309569D01*
X0162237Y0309506D01*
X0162273Y0309441D01*
X0162305Y0309373D01*
X0162334Y0309305D01*
X0162358Y0309234D01*
X0162380Y0309163D01*
X0162397Y0309091D01*
X0162410Y0309017D01*
X0162420Y0308944D01*
X0162426Y0308869D01*
X0162428Y0308795D01*
X0162426Y0308721D01*
X0162420Y0308646D01*
X0162410Y0308573D01*
X0162397Y0308499D01*
X0162380Y0308427D01*
X0162358Y0308356D01*
X0162334Y0308285D01*
X0162305Y0308217D01*
X0162273Y0308149D01*
X0162237Y0308084D01*
X0162199Y0308021D01*
X0162156Y0307959D01*
X0162111Y0307900D01*
X0162063Y0307843D01*
X0162012Y0307789D01*
X0161958Y0307738D01*
X0161901Y0307690D01*
X0161842Y0307645D01*
X0161780Y0307602D01*
X0161717Y0307564D01*
X0161652Y0307528D01*
X0161584Y0307496D01*
X0161516Y0307467D01*
X0161445Y0307443D01*
X0161374Y0307421D01*
X0161302Y0307404D01*
X0161228Y0307391D01*
X0161155Y0307381D01*
X0161080Y0307375D01*
X0161006Y0307373D01*
X0159584Y0307373D01*
X0160650Y0307373D02*
X0160733Y0307371D01*
X0160816Y0307365D01*
X0160899Y0307355D01*
X0160982Y0307342D01*
X0161063Y0307324D01*
X0161144Y0307303D01*
X0161223Y0307278D01*
X0161301Y0307249D01*
X0161378Y0307217D01*
X0161453Y0307181D01*
X0161527Y0307142D01*
X0161598Y0307099D01*
X0161668Y0307053D01*
X0161735Y0307003D01*
X0161800Y0306951D01*
X0161862Y0306896D01*
X0161922Y0306837D01*
X0161979Y0306776D01*
X0162033Y0306713D01*
X0162084Y0306647D01*
X0162131Y0306578D01*
X0162176Y0306508D01*
X0162217Y0306435D01*
X0162254Y0306361D01*
X0162289Y0306285D01*
X0162319Y0306207D01*
X0162346Y0306129D01*
X0162369Y0306048D01*
X0162389Y0305967D01*
X0162404Y0305885D01*
X0162416Y0305803D01*
X0162424Y0305720D01*
X0162428Y0305637D01*
X0162428Y0305553D01*
X0162424Y0305470D01*
X0162416Y0305387D01*
X0162404Y0305305D01*
X0162389Y0305223D01*
X0162369Y0305142D01*
X0162346Y0305061D01*
X0162319Y0304983D01*
X0162289Y0304905D01*
X0162254Y0304829D01*
X0162217Y0304755D01*
X0162176Y0304682D01*
X0162131Y0304612D01*
X0162084Y0304543D01*
X0162033Y0304477D01*
X0161979Y0304414D01*
X0161922Y0304353D01*
X0161862Y0304294D01*
X0161800Y0304239D01*
X0161735Y0304187D01*
X0161668Y0304137D01*
X0161598Y0304091D01*
X0161527Y0304048D01*
X0161453Y0304009D01*
X0161378Y0303973D01*
X0161301Y0303941D01*
X0161223Y0303912D01*
X0161144Y0303887D01*
X0161063Y0303866D01*
X0160982Y0303848D01*
X0160899Y0303835D01*
X0160816Y0303825D01*
X0160733Y0303819D01*
X0160650Y0303817D01*
X0160650Y0303818D02*
X0158873Y0303818D01*
X0164780Y0303818D02*
X0165136Y0303818D01*
X0165136Y0304173D01*
X0164780Y0304173D01*
X0164780Y0303818D01*
X0170511Y0304707D02*
X0170571Y0304834D01*
X0170627Y0304963D01*
X0170680Y0305093D01*
X0170730Y0305225D01*
X0170776Y0305358D01*
X0170818Y0305492D01*
X0170857Y0305627D01*
X0170893Y0305764D01*
X0170924Y0305901D01*
X0170952Y0306039D01*
X0170977Y0306177D01*
X0170997Y0306316D01*
X0171014Y0306456D01*
X0171027Y0306596D01*
X0171036Y0306737D01*
X0171042Y0306877D01*
X0171044Y0307018D01*
X0176665Y0304707D02*
X0176725Y0304834D01*
X0176781Y0304963D01*
X0176834Y0305093D01*
X0176884Y0305225D01*
X0176930Y0305358D01*
X0176972Y0305492D01*
X0177011Y0305627D01*
X0177047Y0305764D01*
X0177078Y0305901D01*
X0177106Y0306039D01*
X0177131Y0306177D01*
X0177151Y0306316D01*
X0177168Y0306456D01*
X0177181Y0306596D01*
X0177190Y0306737D01*
X0177196Y0306877D01*
X0177198Y0307018D01*
X0173642Y0307018D02*
X0173644Y0307159D01*
X0173650Y0307299D01*
X0173659Y0307440D01*
X0173672Y0307580D01*
X0173689Y0307720D01*
X0173709Y0307859D01*
X0173734Y0307997D01*
X0173762Y0308135D01*
X0173793Y0308272D01*
X0173829Y0308409D01*
X0173868Y0308544D01*
X0173910Y0308678D01*
X0173956Y0308811D01*
X0174006Y0308943D01*
X0174059Y0309073D01*
X0174115Y0309202D01*
X0174175Y0309329D01*
X0175420Y0310218D02*
X0175491Y0310216D01*
X0175562Y0310210D01*
X0175632Y0310201D01*
X0175702Y0310187D01*
X0175771Y0310170D01*
X0175838Y0310150D01*
X0175905Y0310125D01*
X0175970Y0310097D01*
X0176034Y0310066D01*
X0176096Y0310031D01*
X0176156Y0309993D01*
X0176214Y0309952D01*
X0176269Y0309908D01*
X0176322Y0309860D01*
X0176372Y0309810D01*
X0176420Y0309758D01*
X0176465Y0309703D01*
X0176506Y0309645D01*
X0176545Y0309585D01*
X0176580Y0309524D01*
X0176612Y0309460D01*
X0176640Y0309395D01*
X0176665Y0309329D01*
X0176842Y0308795D02*
X0173998Y0305240D01*
X0175420Y0303817D02*
X0175491Y0303819D01*
X0175562Y0303825D01*
X0175632Y0303834D01*
X0175702Y0303848D01*
X0175771Y0303865D01*
X0175838Y0303885D01*
X0175905Y0303910D01*
X0175970Y0303938D01*
X0176034Y0303969D01*
X0176096Y0304004D01*
X0176156Y0304042D01*
X0176213Y0304083D01*
X0176269Y0304127D01*
X0176322Y0304175D01*
X0176372Y0304225D01*
X0176420Y0304277D01*
X0176465Y0304332D01*
X0176506Y0304390D01*
X0176545Y0304450D01*
X0176580Y0304511D01*
X0176612Y0304575D01*
X0176640Y0304640D01*
X0176665Y0304706D01*
X0175420Y0303817D02*
X0175349Y0303819D01*
X0175278Y0303825D01*
X0175208Y0303834D01*
X0175138Y0303848D01*
X0175069Y0303865D01*
X0175002Y0303885D01*
X0174935Y0303910D01*
X0174870Y0303938D01*
X0174806Y0303969D01*
X0174744Y0304004D01*
X0174684Y0304042D01*
X0174626Y0304083D01*
X0174571Y0304127D01*
X0174518Y0304175D01*
X0174468Y0304225D01*
X0174420Y0304277D01*
X0174375Y0304332D01*
X0174334Y0304390D01*
X0174295Y0304450D01*
X0174260Y0304511D01*
X0174228Y0304575D01*
X0174200Y0304640D01*
X0174175Y0304706D01*
X0168021Y0304707D02*
X0167961Y0304834D01*
X0167905Y0304963D01*
X0167852Y0305093D01*
X0167802Y0305225D01*
X0167756Y0305358D01*
X0167714Y0305492D01*
X0167675Y0305627D01*
X0167639Y0305764D01*
X0167608Y0305901D01*
X0167580Y0306039D01*
X0167555Y0306177D01*
X0167535Y0306316D01*
X0167518Y0306456D01*
X0167505Y0306596D01*
X0167496Y0306737D01*
X0167490Y0306877D01*
X0167488Y0307018D01*
X0171044Y0307018D02*
X0171042Y0307159D01*
X0171036Y0307299D01*
X0171027Y0307440D01*
X0171014Y0307580D01*
X0170997Y0307720D01*
X0170977Y0307859D01*
X0170952Y0307997D01*
X0170924Y0308135D01*
X0170893Y0308272D01*
X0170857Y0308409D01*
X0170818Y0308544D01*
X0170776Y0308678D01*
X0170730Y0308811D01*
X0170680Y0308943D01*
X0170627Y0309073D01*
X0170571Y0309202D01*
X0170511Y0309329D01*
X0170688Y0308795D02*
X0167844Y0305240D01*
X0169266Y0303817D02*
X0169337Y0303819D01*
X0169408Y0303825D01*
X0169478Y0303834D01*
X0169548Y0303848D01*
X0169617Y0303865D01*
X0169684Y0303885D01*
X0169751Y0303910D01*
X0169816Y0303938D01*
X0169880Y0303969D01*
X0169942Y0304004D01*
X0170002Y0304042D01*
X0170059Y0304083D01*
X0170115Y0304127D01*
X0170168Y0304175D01*
X0170218Y0304225D01*
X0170266Y0304277D01*
X0170311Y0304332D01*
X0170352Y0304390D01*
X0170391Y0304450D01*
X0170426Y0304511D01*
X0170458Y0304575D01*
X0170486Y0304640D01*
X0170511Y0304706D01*
X0169266Y0303817D02*
X0169195Y0303819D01*
X0169124Y0303825D01*
X0169054Y0303834D01*
X0168984Y0303848D01*
X0168915Y0303865D01*
X0168848Y0303885D01*
X0168781Y0303910D01*
X0168716Y0303938D01*
X0168652Y0303969D01*
X0168590Y0304004D01*
X0168530Y0304042D01*
X0168472Y0304083D01*
X0168417Y0304127D01*
X0168364Y0304175D01*
X0168314Y0304225D01*
X0168266Y0304277D01*
X0168221Y0304332D01*
X0168180Y0304390D01*
X0168141Y0304450D01*
X0168106Y0304511D01*
X0168074Y0304575D01*
X0168046Y0304640D01*
X0168021Y0304706D01*
X0177198Y0307018D02*
X0177196Y0307159D01*
X0177190Y0307299D01*
X0177181Y0307440D01*
X0177168Y0307580D01*
X0177151Y0307720D01*
X0177131Y0307859D01*
X0177106Y0307997D01*
X0177078Y0308135D01*
X0177047Y0308272D01*
X0177011Y0308409D01*
X0176972Y0308544D01*
X0176930Y0308678D01*
X0176884Y0308811D01*
X0176834Y0308943D01*
X0176781Y0309073D01*
X0176725Y0309202D01*
X0176665Y0309329D01*
X0175420Y0310218D02*
X0175349Y0310216D01*
X0175278Y0310210D01*
X0175208Y0310201D01*
X0175138Y0310187D01*
X0175069Y0310170D01*
X0175002Y0310150D01*
X0174935Y0310125D01*
X0174870Y0310097D01*
X0174806Y0310066D01*
X0174744Y0310031D01*
X0174684Y0309993D01*
X0174626Y0309952D01*
X0174571Y0309908D01*
X0174518Y0309860D01*
X0174468Y0309810D01*
X0174420Y0309758D01*
X0174375Y0309703D01*
X0174334Y0309645D01*
X0174295Y0309585D01*
X0174260Y0309524D01*
X0174228Y0309460D01*
X0174200Y0309395D01*
X0174175Y0309329D01*
X0168021Y0309329D02*
X0167961Y0309202D01*
X0167905Y0309073D01*
X0167852Y0308943D01*
X0167802Y0308811D01*
X0167756Y0308678D01*
X0167714Y0308544D01*
X0167675Y0308409D01*
X0167639Y0308272D01*
X0167608Y0308135D01*
X0167580Y0307997D01*
X0167555Y0307859D01*
X0167535Y0307720D01*
X0167518Y0307580D01*
X0167505Y0307440D01*
X0167496Y0307299D01*
X0167490Y0307159D01*
X0167488Y0307018D01*
X0169266Y0310218D02*
X0169337Y0310216D01*
X0169408Y0310210D01*
X0169478Y0310201D01*
X0169548Y0310187D01*
X0169617Y0310170D01*
X0169684Y0310150D01*
X0169751Y0310125D01*
X0169816Y0310097D01*
X0169880Y0310066D01*
X0169942Y0310031D01*
X0170002Y0309993D01*
X0170060Y0309952D01*
X0170115Y0309908D01*
X0170168Y0309860D01*
X0170218Y0309810D01*
X0170266Y0309758D01*
X0170311Y0309703D01*
X0170352Y0309645D01*
X0170391Y0309585D01*
X0170426Y0309524D01*
X0170458Y0309460D01*
X0170486Y0309395D01*
X0170511Y0309329D01*
X0169266Y0310218D02*
X0169195Y0310216D01*
X0169124Y0310210D01*
X0169054Y0310201D01*
X0168984Y0310187D01*
X0168915Y0310170D01*
X0168848Y0310150D01*
X0168781Y0310125D01*
X0168716Y0310097D01*
X0168652Y0310066D01*
X0168590Y0310031D01*
X0168530Y0309993D01*
X0168472Y0309952D01*
X0168417Y0309908D01*
X0168364Y0309860D01*
X0168314Y0309810D01*
X0168266Y0309758D01*
X0168221Y0309703D01*
X0168180Y0309645D01*
X0168141Y0309585D01*
X0168106Y0309524D01*
X0168074Y0309460D01*
X0168046Y0309395D01*
X0168021Y0309329D01*
X0173642Y0307018D02*
X0173644Y0306877D01*
X0173650Y0306737D01*
X0173659Y0306596D01*
X0173672Y0306456D01*
X0173689Y0306316D01*
X0173709Y0306177D01*
X0173734Y0306039D01*
X0173762Y0305901D01*
X0173793Y0305764D01*
X0173829Y0305627D01*
X0173868Y0305492D01*
X0173910Y0305358D01*
X0173956Y0305225D01*
X0174006Y0305093D01*
X0174059Y0304963D01*
X0174115Y0304834D01*
X0174175Y0304707D01*
X0010780Y0148050D02*
X0010780Y0147694D01*
X0010424Y0147694D01*
X0010424Y0148050D01*
X0010780Y0148050D01*
X0009358Y0150758D02*
X0005802Y0153602D01*
X0005269Y0153425D02*
X0005203Y0153400D01*
X0005138Y0153372D01*
X0005074Y0153340D01*
X0005013Y0153305D01*
X0004953Y0153266D01*
X0004895Y0153225D01*
X0004840Y0153180D01*
X0004788Y0153132D01*
X0004738Y0153082D01*
X0004690Y0153029D01*
X0004646Y0152974D01*
X0004605Y0152916D01*
X0004567Y0152856D01*
X0004532Y0152794D01*
X0004501Y0152730D01*
X0004473Y0152665D01*
X0004448Y0152598D01*
X0004428Y0152531D01*
X0004411Y0152462D01*
X0004397Y0152392D01*
X0004388Y0152322D01*
X0004382Y0152251D01*
X0004380Y0152180D01*
X0004382Y0152109D01*
X0004388Y0152038D01*
X0004397Y0151968D01*
X0004411Y0151898D01*
X0004428Y0151829D01*
X0004448Y0151762D01*
X0004473Y0151695D01*
X0004501Y0151630D01*
X0004532Y0151566D01*
X0004567Y0151504D01*
X0004605Y0151444D01*
X0004646Y0151386D01*
X0004690Y0151331D01*
X0004738Y0151278D01*
X0004788Y0151228D01*
X0004840Y0151180D01*
X0004895Y0151135D01*
X0004953Y0151094D01*
X0005013Y0151055D01*
X0005074Y0151020D01*
X0005138Y0150988D01*
X0005203Y0150960D01*
X0005269Y0150935D01*
X0005269Y0153425D02*
X0005396Y0153485D01*
X0005525Y0153541D01*
X0005655Y0153594D01*
X0005787Y0153644D01*
X0005920Y0153690D01*
X0006054Y0153732D01*
X0006189Y0153771D01*
X0006326Y0153807D01*
X0006463Y0153838D01*
X0006601Y0153866D01*
X0006739Y0153891D01*
X0006878Y0153911D01*
X0007018Y0153928D01*
X0007158Y0153941D01*
X0007299Y0153950D01*
X0007439Y0153956D01*
X0007580Y0153958D01*
X0009891Y0159579D02*
X0009764Y0159639D01*
X0009635Y0159695D01*
X0009505Y0159748D01*
X0009373Y0159798D01*
X0009240Y0159844D01*
X0009106Y0159886D01*
X0008971Y0159925D01*
X0008834Y0159961D01*
X0008697Y0159992D01*
X0008559Y0160020D01*
X0008421Y0160045D01*
X0008282Y0160065D01*
X0008142Y0160082D01*
X0008002Y0160095D01*
X0007861Y0160104D01*
X0007721Y0160110D01*
X0007580Y0160112D01*
X0007580Y0156556D02*
X0007439Y0156558D01*
X0007299Y0156564D01*
X0007158Y0156573D01*
X0007018Y0156586D01*
X0006878Y0156603D01*
X0006739Y0156623D01*
X0006601Y0156648D01*
X0006463Y0156676D01*
X0006326Y0156707D01*
X0006189Y0156743D01*
X0006054Y0156782D01*
X0005920Y0156824D01*
X0005787Y0156870D01*
X0005655Y0156920D01*
X0005525Y0156973D01*
X0005396Y0157029D01*
X0005269Y0157089D01*
X0005203Y0157114D01*
X0005138Y0157142D01*
X0005074Y0157174D01*
X0005013Y0157209D01*
X0004953Y0157248D01*
X0004895Y0157289D01*
X0004840Y0157334D01*
X0004788Y0157382D01*
X0004738Y0157432D01*
X0004690Y0157485D01*
X0004646Y0157540D01*
X0004605Y0157598D01*
X0004567Y0157658D01*
X0004532Y0157720D01*
X0004501Y0157784D01*
X0004473Y0157849D01*
X0004448Y0157916D01*
X0004428Y0157983D01*
X0004411Y0158052D01*
X0004397Y0158122D01*
X0004388Y0158192D01*
X0004382Y0158263D01*
X0004380Y0158334D01*
X0004382Y0158405D01*
X0004388Y0158476D01*
X0004397Y0158546D01*
X0004411Y0158616D01*
X0004428Y0158685D01*
X0004448Y0158752D01*
X0004473Y0158819D01*
X0004501Y0158884D01*
X0004532Y0158948D01*
X0004567Y0159010D01*
X0004605Y0159070D01*
X0004646Y0159128D01*
X0004690Y0159183D01*
X0004738Y0159236D01*
X0004788Y0159286D01*
X0004840Y0159334D01*
X0004895Y0159379D01*
X0004953Y0159420D01*
X0005013Y0159459D01*
X0005074Y0159494D01*
X0005138Y0159526D01*
X0005203Y0159554D01*
X0005269Y0159579D01*
X0005802Y0159756D02*
X0009358Y0156912D01*
X0010780Y0158334D02*
X0010778Y0158405D01*
X0010772Y0158476D01*
X0010763Y0158546D01*
X0010749Y0158616D01*
X0010732Y0158685D01*
X0010712Y0158752D01*
X0010687Y0158819D01*
X0010659Y0158884D01*
X0010628Y0158948D01*
X0010593Y0159010D01*
X0010555Y0159070D01*
X0010514Y0159127D01*
X0010470Y0159183D01*
X0010422Y0159236D01*
X0010372Y0159286D01*
X0010320Y0159334D01*
X0010265Y0159379D01*
X0010207Y0159420D01*
X0010147Y0159459D01*
X0010086Y0159494D01*
X0010022Y0159526D01*
X0009957Y0159554D01*
X0009891Y0159579D01*
X0010780Y0158334D02*
X0010778Y0158263D01*
X0010772Y0158192D01*
X0010763Y0158122D01*
X0010749Y0158052D01*
X0010732Y0157983D01*
X0010712Y0157916D01*
X0010687Y0157849D01*
X0010659Y0157784D01*
X0010628Y0157720D01*
X0010593Y0157658D01*
X0010555Y0157598D01*
X0010514Y0157540D01*
X0010470Y0157485D01*
X0010422Y0157432D01*
X0010372Y0157382D01*
X0010320Y0157334D01*
X0010265Y0157289D01*
X0010207Y0157248D01*
X0010147Y0157209D01*
X0010086Y0157174D01*
X0010022Y0157142D01*
X0009957Y0157114D01*
X0009891Y0157089D01*
X0009891Y0150935D02*
X0009764Y0150875D01*
X0009635Y0150819D01*
X0009505Y0150766D01*
X0009373Y0150716D01*
X0009240Y0150670D01*
X0009106Y0150628D01*
X0008971Y0150589D01*
X0008834Y0150553D01*
X0008697Y0150522D01*
X0008559Y0150494D01*
X0008421Y0150469D01*
X0008282Y0150449D01*
X0008142Y0150432D01*
X0008002Y0150419D01*
X0007861Y0150410D01*
X0007721Y0150404D01*
X0007580Y0150402D01*
X0007580Y0153958D02*
X0007721Y0153956D01*
X0007861Y0153950D01*
X0008002Y0153941D01*
X0008142Y0153928D01*
X0008282Y0153911D01*
X0008421Y0153891D01*
X0008559Y0153866D01*
X0008697Y0153838D01*
X0008834Y0153807D01*
X0008971Y0153771D01*
X0009106Y0153732D01*
X0009240Y0153690D01*
X0009373Y0153644D01*
X0009505Y0153594D01*
X0009635Y0153541D01*
X0009764Y0153485D01*
X0009891Y0153425D01*
X0009957Y0153400D01*
X0010022Y0153372D01*
X0010086Y0153340D01*
X0010147Y0153305D01*
X0010207Y0153266D01*
X0010265Y0153225D01*
X0010320Y0153180D01*
X0010372Y0153132D01*
X0010422Y0153082D01*
X0010470Y0153029D01*
X0010514Y0152973D01*
X0010555Y0152916D01*
X0010593Y0152856D01*
X0010628Y0152794D01*
X0010659Y0152730D01*
X0010687Y0152665D01*
X0010712Y0152598D01*
X0010732Y0152531D01*
X0010749Y0152462D01*
X0010763Y0152392D01*
X0010772Y0152322D01*
X0010778Y0152251D01*
X0010780Y0152180D01*
X0010778Y0152109D01*
X0010772Y0152038D01*
X0010763Y0151968D01*
X0010749Y0151898D01*
X0010732Y0151829D01*
X0010712Y0151762D01*
X0010687Y0151695D01*
X0010659Y0151630D01*
X0010628Y0151566D01*
X0010593Y0151504D01*
X0010555Y0151444D01*
X0010514Y0151386D01*
X0010470Y0151331D01*
X0010422Y0151278D01*
X0010372Y0151228D01*
X0010320Y0151180D01*
X0010265Y0151135D01*
X0010207Y0151094D01*
X0010147Y0151055D01*
X0010086Y0151020D01*
X0010022Y0150988D01*
X0009957Y0150960D01*
X0009891Y0150935D01*
X0007580Y0160112D02*
X0007439Y0160110D01*
X0007299Y0160104D01*
X0007158Y0160095D01*
X0007018Y0160082D01*
X0006878Y0160065D01*
X0006739Y0160045D01*
X0006601Y0160020D01*
X0006463Y0159992D01*
X0006326Y0159961D01*
X0006189Y0159925D01*
X0006054Y0159886D01*
X0005920Y0159844D01*
X0005787Y0159798D01*
X0005655Y0159748D01*
X0005525Y0159695D01*
X0005396Y0159639D01*
X0005269Y0159579D01*
X0007580Y0156556D02*
X0007721Y0156558D01*
X0007861Y0156564D01*
X0008002Y0156573D01*
X0008142Y0156586D01*
X0008282Y0156603D01*
X0008421Y0156623D01*
X0008559Y0156648D01*
X0008697Y0156676D01*
X0008834Y0156707D01*
X0008971Y0156743D01*
X0009106Y0156782D01*
X0009240Y0156824D01*
X0009373Y0156870D01*
X0009505Y0156920D01*
X0009635Y0156973D01*
X0009764Y0157029D01*
X0009891Y0157089D01*
X0007580Y0150402D02*
X0007439Y0150404D01*
X0007299Y0150410D01*
X0007158Y0150419D01*
X0007018Y0150432D01*
X0006878Y0150449D01*
X0006739Y0150469D01*
X0006601Y0150494D01*
X0006463Y0150522D01*
X0006326Y0150553D01*
X0006189Y0150589D01*
X0006054Y0150628D01*
X0005920Y0150670D01*
X0005787Y0150716D01*
X0005655Y0150766D01*
X0005525Y0150819D01*
X0005396Y0150875D01*
X0005269Y0150935D01*
X0004380Y0143920D02*
X0004382Y0143994D01*
X0004388Y0144069D01*
X0004398Y0144142D01*
X0004411Y0144216D01*
X0004428Y0144288D01*
X0004450Y0144359D01*
X0004474Y0144430D01*
X0004503Y0144498D01*
X0004535Y0144566D01*
X0004571Y0144631D01*
X0004609Y0144694D01*
X0004652Y0144756D01*
X0004697Y0144815D01*
X0004745Y0144872D01*
X0004796Y0144926D01*
X0004850Y0144977D01*
X0004907Y0145025D01*
X0004966Y0145070D01*
X0005028Y0145113D01*
X0005091Y0145151D01*
X0005156Y0145187D01*
X0005224Y0145219D01*
X0005292Y0145248D01*
X0005363Y0145272D01*
X0005434Y0145294D01*
X0005506Y0145311D01*
X0005580Y0145324D01*
X0005653Y0145334D01*
X0005728Y0145340D01*
X0005802Y0145342D01*
X0005876Y0145340D01*
X0005951Y0145334D01*
X0006024Y0145324D01*
X0006098Y0145311D01*
X0006170Y0145294D01*
X0006241Y0145272D01*
X0006312Y0145248D01*
X0006380Y0145219D01*
X0006448Y0145187D01*
X0006513Y0145151D01*
X0006576Y0145113D01*
X0006638Y0145070D01*
X0006697Y0145025D01*
X0006754Y0144977D01*
X0006808Y0144926D01*
X0006859Y0144872D01*
X0006907Y0144815D01*
X0006952Y0144756D01*
X0006995Y0144694D01*
X0007033Y0144631D01*
X0007069Y0144566D01*
X0007101Y0144498D01*
X0007130Y0144430D01*
X0007154Y0144359D01*
X0007176Y0144288D01*
X0007193Y0144216D01*
X0007206Y0144142D01*
X0007216Y0144069D01*
X0007222Y0143994D01*
X0007224Y0143920D01*
X0007224Y0142498D01*
X0007224Y0143564D02*
X0007226Y0143647D01*
X0007232Y0143730D01*
X0007242Y0143813D01*
X0007255Y0143896D01*
X0007273Y0143977D01*
X0007294Y0144058D01*
X0007319Y0144137D01*
X0007348Y0144215D01*
X0007380Y0144292D01*
X0007416Y0144367D01*
X0007455Y0144441D01*
X0007498Y0144512D01*
X0007544Y0144582D01*
X0007594Y0144649D01*
X0007646Y0144714D01*
X0007701Y0144776D01*
X0007760Y0144836D01*
X0007821Y0144893D01*
X0007884Y0144947D01*
X0007950Y0144998D01*
X0008019Y0145045D01*
X0008089Y0145090D01*
X0008162Y0145131D01*
X0008236Y0145168D01*
X0008312Y0145203D01*
X0008390Y0145233D01*
X0008468Y0145260D01*
X0008549Y0145283D01*
X0008630Y0145303D01*
X0008712Y0145318D01*
X0008794Y0145330D01*
X0008877Y0145338D01*
X0008960Y0145342D01*
X0009044Y0145342D01*
X0009127Y0145338D01*
X0009210Y0145330D01*
X0009292Y0145318D01*
X0009374Y0145303D01*
X0009455Y0145283D01*
X0009536Y0145260D01*
X0009614Y0145233D01*
X0009692Y0145203D01*
X0009768Y0145168D01*
X0009842Y0145131D01*
X0009915Y0145090D01*
X0009985Y0145045D01*
X0010054Y0144998D01*
X0010120Y0144947D01*
X0010183Y0144893D01*
X0010244Y0144836D01*
X0010303Y0144776D01*
X0010358Y0144714D01*
X0010410Y0144649D01*
X0010460Y0144582D01*
X0010506Y0144512D01*
X0010549Y0144441D01*
X0010588Y0144367D01*
X0010624Y0144292D01*
X0010656Y0144215D01*
X0010685Y0144137D01*
X0010710Y0144058D01*
X0010731Y0143977D01*
X0010749Y0143896D01*
X0010762Y0143813D01*
X0010772Y0143730D01*
X0010778Y0143647D01*
X0010780Y0143564D01*
X0010780Y0141787D01*
X0004380Y0141787D02*
X0004380Y0143920D01*
D12*
X0038342Y0196256D03*
X0078342Y0196256D03*
D13*
X0098342Y0196256D03*
X0058342Y0196256D03*
D14*
X0118342Y0156256D03*
X0128342Y0156256D03*
X0143342Y0156256D03*
X0153342Y0156256D03*
X0168342Y0156256D03*
X0178342Y0156256D03*
X0188342Y0136256D03*
X0188342Y0121256D03*
X0188342Y0106256D03*
X0188342Y0091256D03*
X0158342Y0091256D03*
X0148342Y0091256D03*
X0148342Y0106256D03*
X0158342Y0106256D03*
X0158342Y0121256D03*
X0148342Y0121256D03*
X0148342Y0136256D03*
X0158342Y0136256D03*
X0118342Y0136256D03*
X0118342Y0121256D03*
X0118342Y0106256D03*
X0118342Y0091256D03*
X0092342Y0081256D03*
X0067342Y0081256D03*
X0067342Y0056256D03*
X0063342Y0036256D03*
X0063342Y0026256D03*
X0053342Y0026256D03*
X0053342Y0036256D03*
X0033342Y0036256D03*
X0033342Y0026256D03*
X0042342Y0056256D03*
X0042342Y0081256D03*
X0083342Y0036256D03*
X0093342Y0036256D03*
X0083342Y0026256D03*
X0103342Y0021256D03*
X0103342Y0011256D03*
X0113342Y0036256D03*
X0092342Y0056256D03*
X0192342Y0181256D03*
X0192342Y0206256D03*
X0237342Y0206256D03*
X0237342Y0181256D03*
X0243342Y0156256D03*
X0253342Y0156256D03*
X0268342Y0156256D03*
X0278342Y0156256D03*
X0293342Y0156256D03*
X0303342Y0156256D03*
X0308342Y0136256D03*
X0308342Y0121256D03*
X0308342Y0106256D03*
X0308342Y0091256D03*
X0278342Y0091256D03*
X0268342Y0091256D03*
X0268342Y0106256D03*
X0278342Y0106256D03*
X0278342Y0121256D03*
X0268342Y0121256D03*
X0268342Y0136256D03*
X0278342Y0136256D03*
X0238342Y0136256D03*
X0238342Y0121256D03*
X0238342Y0106256D03*
X0238342Y0091256D03*
D15*
X0229342Y0181256D03*
X0229342Y0206256D03*
X0184342Y0206256D03*
X0184342Y0181256D03*
X0084342Y0081256D03*
X0084342Y0056256D03*
X0059342Y0056256D03*
X0059342Y0081256D03*
X0034342Y0081256D03*
X0034342Y0056256D03*
D16*
X0038342Y0226256D03*
X0053342Y0226256D03*
X0078342Y0226256D03*
X0093342Y0226256D03*
X0093342Y0266256D03*
X0078342Y0266256D03*
X0053342Y0266256D03*
X0038342Y0266256D03*
D17*
X0123342Y0269056D02*
X0123342Y0263456D01*
X0138342Y0263456D02*
X0138342Y0269056D01*
X0153342Y0269056D02*
X0153342Y0263456D01*
X0168342Y0263456D02*
X0168342Y0269056D01*
X0183342Y0269056D02*
X0183342Y0263456D01*
X0183342Y0229056D02*
X0183342Y0223456D01*
X0168342Y0223456D02*
X0168342Y0229056D01*
X0168342Y0214056D02*
X0168342Y0208456D01*
X0153342Y0208456D02*
X0153342Y0214056D01*
X0153342Y0223456D02*
X0153342Y0229056D01*
X0138342Y0229056D02*
X0138342Y0223456D01*
X0138342Y0214056D02*
X0138342Y0208456D01*
X0123342Y0208456D02*
X0123342Y0214056D01*
X0123342Y0223456D02*
X0123342Y0229056D01*
X0123342Y0174056D02*
X0123342Y0168456D01*
X0138342Y0168456D02*
X0138342Y0174056D01*
X0153342Y0174056D02*
X0153342Y0168456D01*
X0168342Y0168456D02*
X0168342Y0174056D01*
X0195542Y0161256D02*
X0201142Y0161256D01*
X0201142Y0151256D02*
X0195542Y0151256D01*
X0195542Y0141256D02*
X0201142Y0141256D01*
X0201142Y0131256D02*
X0195542Y0131256D01*
X0225542Y0131256D02*
X0231142Y0131256D01*
X0231142Y0141256D02*
X0225542Y0141256D01*
X0225542Y0151256D02*
X0231142Y0151256D01*
X0231142Y0161256D02*
X0225542Y0161256D01*
X0253342Y0168456D02*
X0253342Y0174056D01*
X0268342Y0174056D02*
X0268342Y0168456D01*
X0283342Y0168456D02*
X0283342Y0174056D01*
X0298342Y0174056D02*
X0298342Y0168456D01*
X0298342Y0208456D02*
X0298342Y0214056D01*
X0298342Y0223456D02*
X0298342Y0229056D01*
X0283342Y0229056D02*
X0283342Y0223456D01*
X0283342Y0214056D02*
X0283342Y0208456D01*
X0268342Y0208456D02*
X0268342Y0214056D01*
X0268342Y0223456D02*
X0268342Y0229056D01*
X0253342Y0229056D02*
X0253342Y0223456D01*
X0253342Y0214056D02*
X0253342Y0208456D01*
X0238342Y0223456D02*
X0238342Y0229056D01*
X0238342Y0263456D02*
X0238342Y0269056D01*
X0253342Y0269056D02*
X0253342Y0263456D01*
X0268342Y0263456D02*
X0268342Y0269056D01*
X0283342Y0269056D02*
X0283342Y0263456D01*
X0298342Y0263456D02*
X0298342Y0269056D01*
X0303342Y0039056D02*
X0303342Y0033456D01*
X0293342Y0033456D02*
X0293342Y0039056D01*
X0283342Y0039056D02*
X0283342Y0033456D01*
X0258342Y0033456D02*
X0258342Y0039056D01*
X0248342Y0039056D02*
X0248342Y0033456D01*
X0238342Y0033456D02*
X0238342Y0039056D01*
X0188342Y0039056D02*
X0188342Y0033456D01*
X0178342Y0033456D02*
X0178342Y0039056D01*
X0168342Y0039056D02*
X0168342Y0033456D01*
X0143342Y0033456D02*
X0143342Y0039056D01*
X0133342Y0039056D02*
X0133342Y0033456D01*
X0123342Y0033456D02*
X0123342Y0039056D01*
D18*
X0128342Y0063056D02*
X0128342Y0069456D01*
X0138342Y0069456D02*
X0138342Y0063056D01*
X0118342Y0063056D02*
X0118342Y0069456D01*
X0168342Y0069456D02*
X0168342Y0063056D01*
X0178342Y0063056D02*
X0178342Y0069456D01*
X0188342Y0069456D02*
X0188342Y0063056D01*
X0238342Y0063056D02*
X0238342Y0069456D01*
X0248342Y0069456D02*
X0248342Y0063056D01*
X0258342Y0063056D02*
X0258342Y0069456D01*
X0283342Y0069456D02*
X0283342Y0063056D01*
X0293342Y0063056D02*
X0293342Y0069456D01*
X0303342Y0069456D02*
X0303342Y0063056D01*
D19*
X0078342Y0151256D03*
X0058342Y0116256D03*
D20*
X0068342Y0116256D03*
X0078342Y0116256D03*
X0068342Y0151256D03*
X0058342Y0151256D03*
D21*
X0048342Y0277694D02*
X0048342Y0284818D01*
X0038342Y0284818D02*
X0038342Y0277694D01*
X0138342Y0277694D02*
X0138342Y0284818D01*
X0148342Y0284818D02*
X0148342Y0277694D01*
X0253342Y0277694D02*
X0253342Y0284818D01*
X0263342Y0284818D02*
X0263342Y0277694D01*
X0258342Y0019818D02*
X0258342Y0012694D01*
X0268342Y0012694D02*
X0268342Y0019818D01*
X0168342Y0019818D02*
X0168342Y0012694D01*
X0158342Y0012694D02*
X0158342Y0019818D01*
D22*
X0158342Y0016256D02*
X0158342Y0091256D01*
X0158342Y0091856D01*
X0153542Y0091856D01*
X0153542Y0107856D01*
X0158342Y0112656D01*
X0158342Y0121256D01*
X0158342Y0106256D02*
X0182342Y0106256D01*
X0187142Y0111056D01*
X0189542Y0111056D01*
X0193542Y0107056D01*
X0193542Y0041456D01*
X0188342Y0036256D01*
X0195142Y0034256D02*
X0189542Y0028656D01*
X0175942Y0028656D01*
X0168342Y0036256D01*
X0168742Y0036656D01*
X0168742Y0066256D01*
X0168342Y0066256D01*
X0163142Y0071056D02*
X0163142Y0032656D01*
X0173542Y0022256D01*
X0173542Y0010256D01*
X0176742Y0007056D01*
X0270342Y0007056D01*
X0287942Y0024656D01*
X0287942Y0039856D01*
X0292742Y0044656D01*
X0292742Y0066256D01*
X0293342Y0066256D01*
X0303342Y0066256D02*
X0303942Y0066256D01*
X0307942Y0070256D01*
X0307942Y0091056D01*
X0308342Y0091256D01*
X0308342Y0106256D02*
X0308742Y0106256D01*
X0308742Y0115056D01*
X0312742Y0119056D01*
X0312742Y0125456D01*
X0303942Y0134256D01*
X0303942Y0150256D01*
X0307942Y0154256D01*
X0307942Y0171056D01*
X0300742Y0178256D01*
X0295942Y0178256D01*
X0287942Y0170256D01*
X0287942Y0159856D01*
X0279942Y0151856D01*
X0247942Y0151856D01*
X0243942Y0155856D01*
X0243342Y0156256D01*
X0228742Y0151856D02*
X0248742Y0171856D01*
X0248742Y0176656D01*
X0283342Y0211256D01*
X0283942Y0211056D01*
X0298342Y0211056D01*
X0298342Y0211256D01*
X0291142Y0219056D02*
X0298342Y0226256D01*
X0291142Y0219056D02*
X0267142Y0219056D01*
X0259942Y0211856D01*
X0253542Y0211856D01*
X0253342Y0211256D01*
X0253342Y0226256D02*
X0249542Y0226256D01*
X0229542Y0206256D01*
X0229342Y0206256D01*
X0229542Y0206256D02*
X0229542Y0181456D01*
X0229342Y0181256D01*
X0228742Y0180656D01*
X0228742Y0161456D01*
X0228342Y0161256D01*
X0228742Y0151856D02*
X0228342Y0151256D01*
X0224742Y0147056D02*
X0283942Y0147056D01*
X0292742Y0155856D01*
X0293342Y0156256D01*
X0278342Y0156256D02*
X0278342Y0156656D01*
X0274342Y0160656D01*
X0269542Y0160656D01*
X0259142Y0171056D01*
X0253542Y0171056D01*
X0253342Y0171256D01*
X0268342Y0171256D02*
X0268742Y0171056D01*
X0283142Y0171056D01*
X0283342Y0171256D01*
X0298342Y0171256D02*
X0298342Y0135056D01*
X0274342Y0111056D01*
X0236742Y0111056D01*
X0231942Y0106256D01*
X0231942Y0072656D01*
X0238342Y0066256D01*
X0238342Y0036256D01*
X0236742Y0028656D02*
X0230342Y0035056D01*
X0230342Y0107056D01*
X0236742Y0113456D01*
X0219142Y0131056D01*
X0219142Y0258256D01*
X0251142Y0290256D01*
X0268742Y0290256D01*
X0292742Y0266256D01*
X0298342Y0266256D01*
X0283342Y0266256D02*
X0268342Y0266256D01*
X0253542Y0266256D02*
X0253342Y0266256D01*
X0238342Y0266256D01*
X0238342Y0235056D01*
X0220742Y0217456D01*
X0220742Y0149456D01*
X0223942Y0146256D01*
X0220742Y0143056D01*
X0220742Y0139056D01*
X0227942Y0131856D01*
X0228342Y0131256D01*
X0228742Y0140656D02*
X0228342Y0141256D01*
X0228742Y0140656D02*
X0263942Y0140656D01*
X0268342Y0136256D01*
X0278342Y0126256D01*
X0278342Y0121256D01*
X0286342Y0120656D02*
X0273542Y0107856D01*
X0273542Y0091856D01*
X0268742Y0091856D01*
X0268342Y0091256D01*
X0268742Y0091056D01*
X0268742Y0016656D01*
X0268342Y0016256D01*
X0258342Y0036256D02*
X0258342Y0055856D01*
X0263942Y0061456D01*
X0263942Y0102256D01*
X0267942Y0106256D01*
X0268342Y0106256D01*
X0278342Y0106256D02*
X0278342Y0097456D01*
X0298342Y0077456D01*
X0298342Y0041456D01*
X0303142Y0036656D01*
X0303342Y0036256D01*
X0304742Y0028656D02*
X0300742Y0028656D01*
X0293542Y0035856D01*
X0293342Y0036256D01*
X0283342Y0036256D02*
X0283142Y0036656D01*
X0283142Y0066256D01*
X0283342Y0066256D01*
X0258342Y0066256D02*
X0238342Y0086256D01*
X0238342Y0091256D01*
X0233542Y0092656D02*
X0238342Y0097456D01*
X0238342Y0106256D01*
X0236742Y0113456D02*
X0243942Y0120656D01*
X0267942Y0120656D01*
X0268342Y0121256D01*
X0286342Y0120656D02*
X0307942Y0120656D01*
X0308342Y0121256D01*
X0314342Y0130256D02*
X0308342Y0136256D01*
X0309542Y0137456D01*
X0309542Y0223856D01*
X0299942Y0233456D01*
X0296742Y0233456D01*
X0289542Y0226256D01*
X0283342Y0226256D01*
X0268342Y0226256D02*
X0253342Y0226256D01*
X0253542Y0266256D02*
X0253542Y0280656D01*
X0253342Y0281256D01*
X0191942Y0227056D02*
X0191942Y0206256D01*
X0192342Y0206256D01*
X0192742Y0206256D01*
X0192742Y0181456D01*
X0192342Y0181256D01*
X0192742Y0180656D01*
X0205542Y0167856D01*
X0205542Y0139056D01*
X0198342Y0131856D01*
X0198342Y0131256D01*
X0188742Y0135856D02*
X0188742Y0121456D01*
X0188342Y0121256D01*
X0183942Y0119056D02*
X0195142Y0107856D01*
X0195142Y0034256D01*
X0173542Y0010256D02*
X0170342Y0007056D01*
X0107942Y0007056D01*
X0103942Y0011056D01*
X0103342Y0011256D01*
X0103142Y0011856D01*
X0103142Y0015056D01*
X0083942Y0034256D01*
X0083342Y0036256D01*
X0083942Y0036656D01*
X0083942Y0055856D01*
X0084342Y0056256D01*
X0073542Y0070256D02*
X0059942Y0056656D01*
X0059342Y0056256D01*
X0059942Y0055856D01*
X0059942Y0039856D01*
X0063142Y0036656D01*
X0063342Y0036256D01*
X0063142Y0035856D01*
X0063142Y0026256D01*
X0063342Y0026256D01*
X0059142Y0023856D02*
X0061542Y0021456D01*
X0071142Y0021456D01*
X0083942Y0034256D01*
X0083942Y0035856D01*
X0083342Y0036256D01*
X0103942Y0027056D02*
X0103942Y0021456D01*
X0103342Y0021256D01*
X0103942Y0027056D02*
X0112742Y0035856D01*
X0113342Y0036256D01*
X0119142Y0036656D02*
X0119142Y0031056D01*
X0121542Y0028656D01*
X0125542Y0028656D01*
X0132742Y0035856D01*
X0133342Y0036256D01*
X0143342Y0036256D02*
X0143942Y0036656D01*
X0143942Y0102256D01*
X0147942Y0106256D01*
X0148342Y0106256D01*
X0148742Y0091856D02*
X0148342Y0091256D01*
X0148742Y0091856D02*
X0153542Y0091856D01*
X0166342Y0074256D02*
X0163142Y0071056D01*
X0166342Y0074256D02*
X0178342Y0074256D01*
X0178342Y0087856D01*
X0187942Y0097456D01*
X0187942Y0106256D01*
X0188342Y0106256D01*
X0183942Y0119056D02*
X0183942Y0167056D01*
X0139942Y0211056D01*
X0138342Y0211056D01*
X0138342Y0211256D01*
X0136742Y0219056D02*
X0175942Y0219056D01*
X0183142Y0226256D01*
X0183342Y0226256D01*
X0185542Y0233456D02*
X0191942Y0227056D01*
X0185542Y0233456D02*
X0136742Y0233456D01*
X0129542Y0226256D01*
X0123342Y0226256D01*
X0119142Y0231056D02*
X0119142Y0206256D01*
X0147142Y0178256D01*
X0170342Y0178256D01*
X0172742Y0175856D01*
X0172742Y0160656D01*
X0168342Y0156256D01*
X0167942Y0162256D02*
X0123142Y0117456D01*
X0123142Y0102256D01*
X0113542Y0092656D01*
X0113542Y0071056D01*
X0118342Y0066256D01*
X0123142Y0061456D01*
X0123142Y0036656D01*
X0123342Y0036256D01*
X0119142Y0036656D02*
X0079942Y0075856D01*
X0079942Y0083056D01*
X0082342Y0085456D01*
X0083142Y0085456D01*
X0118342Y0120656D01*
X0118342Y0121256D01*
X0118342Y0121456D01*
X0113542Y0126256D01*
X0113542Y0267056D01*
X0136742Y0290256D01*
X0153542Y0290256D01*
X0177542Y0266256D01*
X0183342Y0266256D01*
X0168342Y0266256D02*
X0153342Y0266256D01*
X0138342Y0266256D02*
X0138342Y0281256D01*
X0138342Y0266256D02*
X0123342Y0266256D01*
X0123142Y0266256D01*
X0123142Y0235056D01*
X0119142Y0231056D01*
X0136742Y0219056D02*
X0129542Y0211856D01*
X0123942Y0211856D01*
X0123342Y0211256D01*
X0138342Y0226256D02*
X0153342Y0226256D01*
X0153342Y0211256D02*
X0153542Y0211056D01*
X0167942Y0211056D01*
X0168342Y0211256D01*
X0168742Y0211056D01*
X0168742Y0190256D01*
X0182342Y0176656D01*
X0183142Y0176656D01*
X0198342Y0161456D01*
X0198342Y0161256D01*
X0198342Y0151256D02*
X0198342Y0151056D01*
X0188742Y0141456D01*
X0188742Y0136656D01*
X0188342Y0136256D01*
X0188742Y0135856D01*
X0167942Y0162256D02*
X0167942Y0171056D01*
X0168342Y0171256D01*
X0153342Y0171256D02*
X0152742Y0171056D01*
X0138342Y0171056D01*
X0138342Y0171256D01*
X0142342Y0163856D02*
X0131142Y0163856D01*
X0130342Y0164656D01*
X0123142Y0157456D01*
X0123142Y0119856D01*
X0118342Y0115056D01*
X0118342Y0106256D01*
X0092742Y0080656D01*
X0092342Y0081256D01*
X0073542Y0070256D02*
X0073542Y0118256D01*
X0078342Y0123056D01*
X0078342Y0151256D01*
X0068342Y0151256D02*
X0067942Y0151056D01*
X0067942Y0123056D01*
X0063142Y0118256D01*
X0063142Y0091056D01*
X0055142Y0083056D01*
X0055142Y0040656D01*
X0059142Y0036656D01*
X0059142Y0023856D01*
X0042342Y0045456D02*
X0033542Y0036656D01*
X0033342Y0036256D01*
X0033542Y0035856D01*
X0033542Y0026256D01*
X0033342Y0026256D01*
X0042342Y0045456D02*
X0042342Y0056256D01*
X0042342Y0072656D01*
X0058342Y0088656D01*
X0058342Y0116256D01*
X0067942Y0115856D02*
X0068342Y0116256D01*
X0068742Y0116656D01*
X0068742Y0121456D01*
X0073542Y0126256D01*
X0073542Y0171056D01*
X0098342Y0195856D01*
X0098342Y0196256D01*
X0098342Y0196656D01*
X0068742Y0226256D01*
X0053342Y0226256D01*
X0051142Y0231056D02*
X0047942Y0227856D01*
X0047942Y0224656D01*
X0067942Y0204656D01*
X0067942Y0151856D01*
X0068342Y0151256D01*
X0058342Y0151256D02*
X0058342Y0151856D01*
X0038342Y0171856D01*
X0038342Y0196256D01*
X0038342Y0226256D01*
X0051142Y0231056D02*
X0087942Y0231056D01*
X0092742Y0226256D01*
X0093342Y0226256D01*
X0053342Y0266256D02*
X0038342Y0266256D01*
X0038342Y0281256D01*
X0123342Y0171256D02*
X0123942Y0171056D01*
X0130342Y0164656D01*
X0142342Y0163856D02*
X0149542Y0156656D01*
X0152742Y0156656D01*
X0153342Y0156256D01*
X0188342Y0091256D02*
X0188742Y0091056D01*
X0188742Y0066256D01*
X0188342Y0066256D01*
X0178342Y0066256D02*
X0178342Y0074256D01*
X0138342Y0066256D02*
X0118342Y0086256D01*
X0118342Y0091256D01*
X0067942Y0081456D02*
X0067342Y0081256D01*
X0067942Y0081456D02*
X0067942Y0115856D01*
X0034342Y0127056D02*
X0034342Y0081256D01*
X0034342Y0127056D02*
X0058342Y0151056D01*
X0058342Y0151256D01*
X0223942Y0146256D02*
X0224742Y0147056D01*
X0233542Y0092656D02*
X0233542Y0081456D01*
X0248742Y0066256D01*
X0248342Y0066256D01*
X0273542Y0091856D02*
X0278342Y0091856D01*
X0278342Y0091256D01*
X0314342Y0130256D02*
X0314342Y0038256D01*
X0304742Y0028656D01*
X0248342Y0036256D02*
X0240742Y0028656D01*
X0236742Y0028656D01*
M02*
